<?xml version="1.0" encoding="utf-8"?>
<!-- Generator: Adobe Illustrator 22.1.0, SVG Export Plug-In . SVG Version: 6.00 Build 0)  -->
<svg version="1.1" id="Layer_1" xmlns="http://www.w3.org/2000/svg" xmlns:xlink="http://www.w3.org/1999/xlink" x="0px" y="0px"
	 viewBox="0 0 175.6 592.2" style="enable-background:new 0 0 175.6 592.2;" xml:space="preserve">
<style type="text/css">
	.st0{enable-background:new    ;}
	.st1{fill:#FF0000;}
</style>
<g class="st0">
	<path class="st1" d="M32.4,61.6C32.4,25.1,60.4,0,90.1,0c30.3,0,56.2,25.9,56.2,59.7c0,37.4-28.7,63.3-59.1,63.3
		C57.5,123,32.4,97.9,32.4,61.6z M138.1,64.1c0-39.2-25.7-58.3-50.8-58.3c-18.8,0-47.7,13.3-47.7,50.4c0,42.3,29.1,60.9,51.2,60.9
		C109.5,117.2,138.1,104.8,138.1,64.1z"/>
</g>
<g class="st0">
	<path class="st1" d="M128.8,164v108l11.8,4.1v1.6h-30.8v-1.6l11.8-4.1v-55.1H56.9V272l11.8,4.1v1.6H38v-1.6l11.8-4.1V164L38,159.2
		v-1.6h30.8v1.6L56.9,164v48.2h64.7V164l-11.8-4.7v-1.6h30.8v1.6L128.8,164z"/>
</g>
<g class="st0">
	<path class="st1" d="M0,588.9l11.8-4.1v-108L0,472v-1.6h19.1l57.5,99.3v-93L64.7,472v-1.6h30.8v1.6l-11.8,4.7v113.7h-3.9
		L19.1,484.8v99.9l11.7,4.1v1.6H0V588.9z"/>
	<path class="st1" d="M104.5,551c0-18.5,10.9-41.8,36.5-41.8c24.2,0,34.6,23.4,34.6,40.7c0,17.5-10.7,42.3-35.2,42.3
		C116.4,592.2,104.5,568.8,104.5,551z M169.1,552.1c0-19.6-11.2-38.1-29.7-38.1c-17.8,0-29.2,14.8-29.2,34.3c0,19.3,12.8,39,32.2,39
		C157.7,587.3,169.1,571.7,169.1,552.1z"/>
</g>
</svg>
