<?xml version="1.0" encoding="utf-8"?>
<!-- Generator: Adobe Illustrator 22.1.0, SVG Export Plug-In . SVG Version: 6.00 Build 0)  -->
<svg version="1.1" id="Layer_1" xmlns="http://www.w3.org/2000/svg" xmlns:xlink="http://www.w3.org/1999/xlink" x="0px" y="0px"
	 viewBox="0 0 217.7 653.4" style="enable-background:new 0 0 217.7 653.4;" xml:space="preserve">
<style type="text/css">
	.st0{enable-background:new    ;}
	.st1{fill:#FF0000;}
</style>
<g class="st0">
	<path class="st1" d="M39.4,28.1V75H21.6V28.1H2.3V10.2h56.3l0.1,17.9H39.4z"/>
	<path class="st1" d="M125.1,10.2V75h-17.9V51.7H85.1V75H67.2V10.2h17.9v24.5h22.1V10.2H125.1z"/>
	<path class="st1" d="M187.8,57.1V75h-50.3V10.2h48.9v17.9h-31.2v5.7H184v17.9h-28.8v5.4H187.8z"/>
</g>
<g class="st0">
	<path class="st1" d="M6.5,289.2h17.9V354H6.5V289.2z"/>
	<path class="st1" d="M37.1,289.2h26.2c14,0,23.8,7.6,23.8,20.7c0,9.1-4.9,17.4-11.7,20.3c-1.4,0.4-1.4,0.5-1.7,0.7L91.9,354H70.5
		l-15.5-21.2V354H37.1V289.2z M59.1,317.6c4.4,0,8.8-1.2,8.8-6.2c0-5.4-5.1-6.9-8.6-6.9h-4.3v13.1H59.1z"/>
	<path class="st1" d="M98.7,321.6c0-17.8,11.2-33.7,34.2-33.7c22.9,0,34.2,15.9,34.2,33.7c0,17.8-11.3,33.7-34.2,33.7
		C109.9,355.3,98.7,339.4,98.7,321.6z M147.7,321.6c0-7.6-4-18.5-14.8-18.5c-10.9,0-14.8,10.9-14.8,18.5c0,7.6,3.9,18.5,14.8,18.5
		C143.7,340.1,147.7,329.2,147.7,321.6z"/>
	<path class="st1" d="M178,338.2v-14.1h34.1v14.1H178z"/>
</g>
<g class="st0">
	<path class="st1" d="M6.2,568.2h17l23,34.8v-34.8h17.9V633H46.9l-22.8-34v34H6.2V568.2z"/>
	<path class="st1" d="M100.1,610.3l-25.8-42.1h19.6l15.1,26.3l15-26.3h19.7l-25.7,42.1V633h-17.8V610.3z"/>
</g>
</svg>
