<?xml version="1.0" encoding="utf-8"?>
<!-- Generator: Adobe Illustrator 22.1.0, SVG Export Plug-In . SVG Version: 6.00 Build 0)  -->
<svg version="1.1" id="Layer_1" xmlns="http://www.w3.org/2000/svg" xmlns:xlink="http://www.w3.org/1999/xlink" x="0px" y="0px"
	 viewBox="0 0 245.6 111.2" style="enable-background:new 0 0 245.6 111.2;" xml:space="preserve">
<style type="text/css">
	.st0{fill:#FF0000;}
</style>
<g>
	<g>
		<path class="st0" d="M24,107.7l10.3-5.5V16.7c0-3.7-1-4.8-4.1-4.8H13.7L3.4,26.7H0C2.1,17.1,4.1,13,4.8,5.5h78.9
			c0.7,7.5,2.7,11.7,4.8,21.3H85L74.7,11.9H58.3c-3.2,0-4.1,1.1-4.1,4.8v85.4l10.3,5.5v2.1H24V107.7z"/>
		<path class="st0" d="M94.6,107.7l8.9-4.3V9.2l-8.9-4.4V2.7L117.4,0h2.7v48c3.6-5.9,10.3-12.5,21.3-12.5c10.1,0,21,5.6,21,20.6
			v47.3l8.9,4.3v2.1h-33.1v-2.1l7.5-4.3V63c0-15.2-2.2-20.4-9.5-20.4c-6.6,0-12.6,7-16.2,13.2v47.7l7.5,4.3v2.1H94.6V107.7z"/>
		<path class="st0" d="M176.8,73.5c0-22.9,13.4-38,34-38c17.3,0,30.2,9.5,30.2,28.9v5.3h-46.6v2.1c0,20.3,9.2,33.7,22.9,33.7
			c10.4,0,19.7-7.8,25-20h3.4c-4.9,14.8-18,25.6-34.8,25.6C190.9,111.2,176.8,96,176.8,73.5z M223.6,64.6c0-13.7-5.5-22.9-13.9-22.9
			c-9.2,0-15.4,9.2-15.4,22.9H223.6z"/>
	</g>
</g>
</svg>
