<?xml version="1.0" encoding="utf-8"?>
<!-- Generator: Adobe Illustrator 22.1.0, SVG Export Plug-In . SVG Version: 6.00 Build 0)  -->
<svg version="1.1" id="Layer_1" xmlns="http://www.w3.org/2000/svg" xmlns:xlink="http://www.w3.org/1999/xlink" x="0px" y="0px"
	 viewBox="0 0 512.5 120.1" style="enable-background:new 0 0 512.5 120.1;" xml:space="preserve">
<style type="text/css">
	.st0{fill:#FF0000;}
</style>
<g>
	<g>
		<path class="st0" d="M3.8,26.8C3.8,11.9,12.9,0,30,0c17,0,25.5,11.7,26.2,22.7h-15c-1.1-5-4.3-10.8-11.5-10.8
			c-8.2,0-11.1,7.2-11.1,14.5c0,7.3,2.9,14.3,11,14.3c7.5,0,10.6-6,11.6-10.8h15c-0.9,11.3-9.1,22.7-26.7,22.7
			C11.3,52.5,3.8,40.3,3.8,26.8z"/>
		<path class="st0" d="M76.5,26.2C76.5,12.4,85.2,0,103.1,0c17.8,0,26.6,12.4,26.6,26.2s-8.8,26.2-26.6,26.2
			C85.2,52.5,76.5,40.1,76.5,26.2z M114.7,26.2c0-5.9-3.1-14.4-11.5-14.4c-8.5,0-11.5,8.5-11.5,14.4s3,14.4,11.5,14.4
			C111.6,40.6,114.7,32.1,114.7,26.2z"/>
		<path class="st0" d="M152.7,1.1H168l14.1,34.7l14-34.7h15.3v50.4h-13.9V27.7l-9.1,23.7h-12.5l-9.2-23.7v23.7h-13.9V1.1z"/>
		<path class="st0" d="M234.4,1.1h20.3c11,0,18.6,5.8,18.6,16.8c0,12-9.3,17-20.2,17h-4.8v16.6h-13.9V1.1z M251.7,23
			c3.2,0,6.7-0.9,6.7-4.8c0-4-4-5.2-6.7-5.2h-3.4V23H251.7z"/>
		<path class="st0" d="M332,37.5v13.9h-37.4V1.1h13.8v36.5H332z"/>
		<path class="st0" d="M391.1,37.5v13.9h-39.2V1.1h38V15h-24.3v4.4h22.4v13.9h-22.4v4.2H391.1z"/>
		<path class="st0" d="M438.5,15v36.5h-13.9V15h-15V1.1h43.8l0.1,13.9H438.5z"/>
		<path class="st0" d="M512.5,37.5v13.9h-39.2V1.1h38V15h-24.3v4.4h22.4v13.9h-22.4v4.2H512.5z"/>
	</g>
	<g>
		<path class="st0" d="M20,68.7H34l19.9,50.4H38.6l-2.9-8.6H18.2l-2.8,8.6H0L20,68.7z M31.5,98.1L27,84.4l-4.5,13.7H31.5z"/>
		<path class="st0" d="M57,68.7h13.2l17.9,27v-27H102v50.4H88.7L70.9,92.6v26.4H57V68.7z"/>
		<path class="st0" d="M108.4,68.7h13.2l17.9,27v-27h13.9v50.4h-13.3l-17.8-26.4v26.4h-13.9V68.7z"/>
		<path class="st0" d="M160,68.7h13.9v50.4H160V68.7z"/>
		<path class="st0" d="M225.2,68.7v50.4h-13.9V101h-17.2v18.1h-13.9V68.7h13.9v19.1h17.2V68.7H225.2z"/>
		<path class="st0" d="M230.3,68.7h13.9v50.4h-13.9V68.7z"/>
		<path class="st0" d="M286.6,105.2v13.9h-37.4V68.7H263v36.5H286.6z"/>
		<path class="st0" d="M306.6,68.7h14.1l19.9,50.4h-15.3l-2.9-8.6h-17.5l-2.8,8.6h-15.3L306.6,68.7z M318.2,98.1l-4.5-13.7
			l-4.5,13.7H318.2z"/>
		<path class="st0" d="M364.1,82.6v36.5h-13.9V82.6h-15V68.7H379l0.1,13.9H364.1z"/>
		<path class="st0" d="M382.3,68.7h13.9v50.4h-13.9V68.7z"/>
		<path class="st0" d="M401.1,93.9c0-13.9,8.8-26.2,26.6-26.2c17.8,0,26.6,12.4,26.6,26.2s-8.8,26.2-26.6,26.2
			C409.9,120.1,401.1,107.7,401.1,93.9z M439.3,93.9c0-5.9-3.1-14.4-11.5-14.4c-8.5,0-11.5,8.5-11.5,14.4s3,14.4,11.5,14.4
			C436.2,108.3,439.3,99.8,439.3,93.9z"/>
		<path class="st0" d="M459,68.7h13.2l17.9,27v-27h13.9v50.4h-13.3L473,92.6v26.4H459V68.7z"/>
	</g>
</g>
</svg>
