<?xml version="1.0" encoding="utf-8"?>
<!-- Generator: Adobe Illustrator 22.1.0, SVG Export Plug-In . SVG Version: 6.00 Build 0)  -->
<svg version="1.1" id="Layer_1" xmlns="http://www.w3.org/2000/svg" xmlns:xlink="http://www.w3.org/1999/xlink" x="0px" y="0px"
	 viewBox="0 0 1144.3 113.3" style="enable-background:new 0 0 1144.3 113.3;" xml:space="preserve">
<style type="text/css">
	.st0{fill:#FF0000;}
</style>
<g>
	<g>
		<path class="st0" d="M0,65.6c0-32.7,38.8-56,73.5-56c27.5,0,47.5,16.3,47.5,37.9c0,32.3-39.8,56.2-75.1,56.2
			C19.1,103.7,0,88.1,0,65.6z M111.9,49.2c0-23.3-20.1-35.2-42.6-35.2c-19.5,0-52,10.2-59.6,38.5c-1,4.1-1.5,8-1.5,11.6
			c0,24.2,22.3,35,42.2,35C73,99.3,111.9,87.4,111.9,49.2z"/>
		<path class="st0" d="M118.3,101.2l13.1-3.1l21.8-82.7l-11.3-3.6l0.3-1.2h69.6c-1,6.6,0.5,10.3,0.8,18.7H211l-6.7-15.1h-43.4
			l-9.8,37h30.3l6.9-10.3h1.6l-6.4,24.2h-1.6l-1.3-10.3h-30.3l-11.5,43.3l11.5,3.1l-0.3,1.2H118L118.3,101.2z"/>
		<path class="st0" d="M245.6,101.2l13.1-3.1l21.8-82.7l-11.3-3.6l0.3-1.2h19.8l23.4,85.1l66.4-85.1H397l-0.3,1.2l-13.3,3.6
			l-21.8,82.7l11.5,3.1l-0.3,1.2h-31.9l0.3-1.2l13.1-3.1l19.3-73.2l-61.9,77.6h-4.9l-21.8-75.9l-18.8,71.5l11.3,3.1l-0.3,1.2h-31.9
			L245.6,101.2z"/>
		<path class="st0" d="M385.9,101.2l13.1-3.1l21.8-82.7l-11.3-3.6l0.3-1.2h69.6c-1,6.6,0.5,10.3,0.8,18.7h-1.6l-6.7-15.1h-43.4
			l-9.8,37h30.3l6.9-10.3h1.6L451,65.1h-1.6l-1.3-10.3h-30.3l-11.6,44h45l14.6-15.1h1.6c-4.6,8.5-8,12.1-10.6,18.7h-71.2
			L385.9,101.2z"/>
		<path class="st0" d="M510.8,101.2l13.1-3.1L546,14.2h-36.8l-14.6,15.1h-1.6c4.6-8.5,8-12.1,10.6-18.7h94.1
			c-1,6.6,0.5,10.3,0.8,18.7h-1.6l-6.7-15.1h-36.8l-22.1,83.9l11.5,3.1l-0.3,1.2h-31.9L510.8,101.2z"/>
		<path class="st0" d="M561,101.2l12.9-3.1l72.5-88.5h4.9l29,88.5l10.8,3.1l-0.3,1.2h-31.9l0.3-1.2l12.1-3.1L659.7,61h-50.1
			l-30,37.1l13.3,3.1l-0.3,1.2h-31.9L561,101.2z M658.6,57.3l-13.1-41l-32.9,41H658.6z"/>
		<path class="st0" d="M700.5,101.2l13.1-3.1l21.8-82.7L724,11.8l0.3-1.2h47.3c18.2,0,33.9,6.9,33.9,19.6
			c0,18.7-23.7,27.6-46.3,27.6h-27.7l-10.6,40.4l11.5,3.1l-0.3,1.2h-31.9L700.5,101.2z M759,55.3c22.9,0,38.5-10.4,38.5-25.9
			c0-10.8-10.1-16.4-27.3-16.4h-26.8l-11.1,42.3H759z"/>
		<path class="st0" d="M923.8,10.6l-0.3,1.2l-13.3,3.6l-21.8,82.7l11.5,3.1l-0.3,1.2h-31.9l0.3-1.2l13.1-3.1l11.1-42.2h-67.1
			L814,98.1l11.5,3.1l-0.3,1.2h-31.9l0.3-1.2l13.1-3.1l21.8-82.7l-11.3-3.6l0.3-1.2h31.9l-0.3,1.2l-13.3,3.6l-9.7,36.9h67.1
			l9.7-36.9l-11.3-3.6l0.3-1.2H923.8z"/>
		<path class="st0" d="M920.9,65.6c0-32.7,38.8-56,73.5-56c27.5,0,47.5,16.3,47.5,37.9c0,32.3-39.8,56.2-75.1,56.2
			C940,103.7,920.9,88.1,920.9,65.6z M1032.8,49.2c0-23.3-20.1-35.2-42.6-35.2c-19.5,0-52,10.2-59.6,38.5c-1,4.1-1.5,8-1.5,11.6
			c0,24.2,22.3,35,42.2,35C993.9,99.3,1032.8,87.4,1032.8,49.2z"/>
		<path class="st0" d="M1098,57.7h-3.6l22.7,40.4l13.7,3.1l-0.3,1.2h-35.2l0.3-1.2l12.8-3.1l-22.6-40.4h-15.5l-10.6,40.4l11.5,3.1
			l-0.3,1.2h-31.9l0.3-1.2l13.1-3.1l21.8-82.7l-11.3-3.6l0.3-1.2h47.3c18.2,0,33.9,6.9,33.9,19.6C1144.3,48.9,1120.6,57.7,1098,57.7
			z M1097.8,55.3c22.9,0,38.5-10.4,38.5-25.9c0-10.8-10.1-16.4-27.3-16.4h-26.8L1071,55.3H1097.8z"/>
	</g>
	<g>
		<path class="st0" d="M22,66.1C22,31.3,59.3,6.6,92.7,6.6c26.4,0,45.6,17.4,45.6,40.4c0,34.3-38.2,59.8-72.2,59.8
			C40.4,106.7,22,90.2,22,66.1z M129.6,48.8c0-24.8-19.4-37.4-40.9-37.4c-18.7,0-50,10.8-57.3,41c-0.9,4.4-1.4,8.5-1.4,12.3
			C30,90.4,51.4,102,70.6,102C92.2,102,129.6,89.4,129.6,48.8z"/>
		<path class="st0" d="M135.8,104l12.6-3.3l20.9-87.9l-10.9-3.9l0.3-1.3h66.9c-0.9,7.1,0.5,10.9,0.8,19.9h-1.6l-6.5-16.1h-41.7
			l-9.4,39.3h29.1l6.6-10.9h1.6l-6.1,25.7h-1.6l-1.3-10.9h-29.1l-11,46l11,3.3l-0.3,1.3h-30.7L135.8,104z"/>
		<path class="st0" d="M258.2,104l12.6-3.3l20.9-87.9l-10.9-3.9l0.3-1.3h19l22.5,90.5l63.9-90.5h17.2l-0.3,1.3l-12.7,3.9l-20.9,87.9
			l11,3.3l-0.3,1.3h-30.7l0.3-1.3l12.6-3.3l18.6-77.9l-59.5,82.5h-4.7l-20.9-80.7L278,100.7l10.9,3.3l-0.3,1.3h-30.7L258.2,104z"/>
		<path class="st0" d="M393.1,104l12.6-3.3l20.9-87.9l-10.9-3.9l0.3-1.3h66.9c-0.9,7.1,0.5,10.9,0.8,19.9h-1.6l-6.5-16.1H434
			l-9.4,39.3h29.1l6.6-10.9h1.6l-6.1,25.7h-1.6l-1.3-10.9h-29.1l-11.2,46.8h43.3l14-16.1h1.6c-4.4,9-7.7,12.9-10.2,19.9h-68.5
			L393.1,104z"/>
		<path class="st0" d="M513.1,104l12.6-3.3L547,11.5h-35.4l-14,16.1H496c4.4-9,7.7-12.9,10.2-19.9h90.5c-0.9,7.1,0.5,10.9,0.8,19.9
			h-1.6l-6.5-16.1H554l-21.2,89.2l11,3.3l-0.3,1.3h-30.7L513.1,104z"/>
		<path class="st0" d="M561.4,104l12.4-3.3l69.7-94.1h4.7l27.9,94.1l10.4,3.3l-0.3,1.3h-30.7l0.3-1.3l11.6-3.3l-11.2-39.5h-48.2
			l-28.8,39.5l12.7,3.3l-0.3,1.3h-30.7L561.4,104z M655.2,57.4l-12.6-43.6L611,57.4H655.2z"/>
		<path class="st0" d="M695.5,104l12.6-3.3L729,12.8l-10.9-3.9l0.3-1.3H764c17.5,0,32.6,7.3,32.6,20.8c0,19.9-22.8,29.3-44.5,29.3
			h-26.6l-10.2,42.9l11,3.3l-0.3,1.3h-30.7L695.5,104z M751.9,55.2c22,0,37-11.1,37-27.5c0-11.4-9.8-17.5-26.3-17.5h-25.8l-10.7,45
			H751.9z"/>
		<path class="st0" d="M910.3,7.6L910,8.9l-12.7,3.9l-20.9,87.9l11,3.3l-0.3,1.3h-30.7l0.3-1.3l12.6-3.3l10.7-44.9h-64.5l-10.7,44.9
			l11,3.3l-0.3,1.3h-30.7l0.3-1.3l12.6-3.3l20.9-87.9l-10.9-3.9l0.3-1.3h30.7l-0.3,1.3l-12.7,3.9L816.4,52h64.5l9.3-39.2l-10.9-3.9
			l0.3-1.3H910.3z"/>
		<path class="st0" d="M907.5,66.1c0-34.8,37.3-59.5,70.7-59.5c26.4,0,45.6,17.4,45.6,40.4c0,34.3-38.2,59.8-72.2,59.8
			C925.9,106.7,907.5,90.2,907.5,66.1z M1015.1,48.8c0-24.8-19.4-37.4-40.9-37.4c-18.7,0-50,10.8-57.3,41c-0.9,4.4-1.4,8.5-1.4,12.3
			c0,25.7,21.4,37.3,40.6,37.3C977.7,102,1015.1,89.4,1015.1,48.8z"/>
		<path class="st0" d="M1077.8,57.8h-3.5l21.9,42.9l13.2,3.3l-0.3,1.3h-33.8l0.3-1.3l12.3-3.3l-21.7-42.9h-15l-10.2,42.9l11,3.3
			l-0.3,1.3h-30.7l0.3-1.3l12.6-3.3l20.9-87.9l-10.9-3.9l0.3-1.3h45.5c17.5,0,32.6,7.3,32.6,20.8
			C1122.3,48.4,1099.5,57.8,1077.8,57.8z M1077.6,55.2c22,0,37-11.1,37-27.5c0-11.4-9.8-17.5-26.3-17.5h-25.8l-10.7,45H1077.6z"/>
	</g>
	<g>
		<path class="st0" d="M43.2,66.7c0-37.1,35.9-63.3,67.9-63.3c25.4,0,43.9,18.5,43.9,42.9c0,36.5-36.8,63.6-69.5,63.6
			C60.9,109.9,43.2,92.3,43.2,66.7z M146.7,48.3c0-26.4-18.6-39.8-39.3-39.8c-18,0-48.1,11.5-55.1,43.6c-0.9,4.6-1.4,9-1.4,13.1
			c0,27.4,20.6,39.7,39,39.7C110.7,104.9,146.7,91.5,146.7,48.3z"/>
		<path class="st0" d="M152.6,107.1l12.1-3.6L184.8,10l-10.4-4.1l0.3-1.4H239c-0.9,7.5,0.5,11.6,0.8,21.2h-1.5L232,8.6h-40.1
			l-9.1,41.8h28l6.4-11.6h1.5l-5.9,27.4h-1.5l-1.2-11.6h-28l-10.6,49l10.6,3.6l-0.3,1.4h-29.5L152.6,107.1z"/>
		<path class="st0" d="M270.3,107.1l12.1-3.6L302.5,10l-10.4-4.1l0.3-1.4h18.3l21.6,96.3l61.4-96.3h16.5l-0.3,1.4L397.7,10
			l-20.1,93.5l10.6,3.6l-0.3,1.4h-29.5l0.3-1.4l12.1-3.6l17.9-82.9l-57.2,87.8h-4.5l-20.1-85.9l-17.4,81l10.4,3.6l-0.3,1.4H270
			L270.3,107.1z"/>
		<path class="st0" d="M400,107.1l12.1-3.6L432.2,10l-10.4-4.1l0.3-1.4h64.3c-0.9,7.5,0.5,11.6,0.8,21.2h-1.5l-6.2-17.1h-40.1
			l-9.1,41.8h28l6.4-11.6h1.5l-5.9,27.4h-1.5l-1.2-11.6h-28l-10.7,49.8h41.6l13.5-17.1h1.5c-4.2,9.6-7.4,13.7-9.8,21.2h-65.8
			L400,107.1z"/>
		<path class="st0" d="M515.4,107.1l12.1-3.6l20.4-94.9h-34l-13.5,17.1h-1.5c4.2-9.6,7.4-13.7,9.8-21.2h87
			c-0.9,7.5,0.5,11.6,0.8,21.2H595l-6.2-17.1h-34l-20.4,94.9l10.6,3.6l-0.3,1.4h-29.5L515.4,107.1z"/>
		<path class="st0" d="M561.9,107.1l12-3.6l67-100.1h4.5l26.8,100.1l10,3.6l-0.3,1.4h-29.5l0.3-1.4l11.2-3.6l-10.7-42h-46.3
			l-27.7,42l12.3,3.6l-0.3,1.4h-29.5L561.9,107.1z M652,57.4l-12.1-46.4l-30.4,46.4H652z"/>
		<path class="st0" d="M690.8,107.1l12.1-3.6L723,10l-10.4-4.1l0.3-1.4h43.7c16.8,0,31.3,7.8,31.3,22.2c0,21.2-21.9,31.2-42.8,31.2
			h-25.6l-9.8,45.7l10.6,3.6l-0.3,1.4h-29.5L690.8,107.1z M744.9,55.1c21.2,0,35.6-11.8,35.6-29.3c0-12.2-9.4-18.6-25.3-18.6h-24.8
			l-10.3,47.9H744.9z"/>
		<path class="st0" d="M897.3,4.5L897,5.9L884.8,10l-20.1,93.5l10.6,3.6l-0.3,1.4h-29.5l0.3-1.4l12.1-3.6l10.3-47.7h-62l-10.3,47.7
			l10.6,3.6l-0.3,1.4h-29.5l0.3-1.4l12.1-3.6L809.1,10l-10.4-4.1l0.3-1.4h29.5l-0.3,1.4L815.9,10L807,51.7h62l8.9-41.7l-10.4-4.1
			l0.3-1.4H897.3z"/>
		<path class="st0" d="M894.6,66.7c0-37.1,35.9-63.3,67.9-63.3c25.4,0,43.9,18.5,43.9,42.9c0,36.5-36.8,63.6-69.5,63.6
			C912.3,109.9,894.6,92.3,894.6,66.7z M998.1,48.3c0-26.4-18.6-39.8-39.3-39.8c-18,0-48.1,11.5-55.1,43.6c-0.9,4.6-1.4,9-1.4,13.1
			c0,27.4,20.6,39.7,39,39.7C962.1,104.9,998.1,91.5,998.1,48.3z"/>
		<path class="st0" d="M1058.3,57.8h-3.3l21,45.7l12.7,3.6l-0.3,1.4h-32.5l0.3-1.4l11.8-3.6l-20.9-45.7h-14.4l-9.8,45.7l10.6,3.6
			l-0.3,1.4h-29.5l0.3-1.4l12.1-3.6l20.1-93.5l-10.4-4.1l0.3-1.4h43.7c16.8,0,31.3,7.8,31.3,22.2
			C1101.1,47.8,1079.2,57.8,1058.3,57.8z M1058.2,55.1c21.2,0,35.6-11.8,35.6-29.3c0-12.2-9.4-18.6-25.3-18.6h-24.8l-10.3,47.9
			H1058.2z"/>
	</g>
	<g>
		<path class="st0" d="M63.5,67.4C63.5,27.9,98,0,128.8,0C153.3,0,171,19.6,171,45.7c0,38.8-35.4,67.7-66.8,67.7
			C80.5,113.3,63.5,94.6,63.5,67.4z M163,47.7c0-28.1-17.9-42.3-37.8-42.3c-17.3,0-46.3,12.2-53,46.4c-0.9,4.9-1.3,9.6-1.3,14
			c0,29.1,19.8,42.2,37.5,42.2C128.4,108,163,93.7,163,47.7z"/>
		<path class="st0" d="M168.7,110.3l11.6-3.8L199.7,7l-10-4.4l0.3-1.5h61.8c-0.9,8,0.4,12.4,0.7,22.6H251l-6-18.2h-38.6L197.8,50
			h26.9l6.1-12.4h1.5l-5.7,29.1h-1.5L224,54.4h-26.9l-10.2,52.1l10.2,3.8l-0.3,1.5h-28.4L168.7,110.3z"/>
		<path class="st0" d="M281.9,110.3l11.6-3.8L312.9,7l-10-4.4l0.3-1.5h17.6l20.8,102.4L400.6,1.2h15.9l-0.3,1.5L404.4,7L385,106.5
			l10.2,3.8l-0.3,1.5h-28.4l0.3-1.5l11.6-3.8l17.2-88.2l-55,93.4h-4.4L317,20.4l-16.7,86.1l10,3.8l-0.3,1.5h-28.4L281.9,110.3z"/>
		<path class="st0" d="M406.6,110.3l11.6-3.8L437.6,7l-10-4.4l0.3-1.5h61.8c-0.9,8,0.4,12.4,0.7,22.6h-1.5l-6-18.2h-38.6L435.7,50
			h26.9l6.1-12.4h1.5l-5.7,29.1H463l-1.2-12.4h-26.9l-10.3,53h40l12.9-18.2h1.5c-4.1,10.2-7.1,14.5-9.5,22.6h-63.3L406.6,110.3z"/>
		<path class="st0" d="M517.6,110.3l11.6-3.8l19.6-101h-32.7l-12.9,18.2h-1.5c4.1-10.2,7.1-14.5,9.5-22.6h83.7
			c-0.9,8,0.4,12.4,0.7,22.6h-1.5l-6-18.2h-32.7l-19.6,101l10.2,3.8l-0.3,1.5h-28.4L517.6,110.3z"/>
		<path class="st0" d="M562.3,110.3l11.5-3.8L638.2,0h4.4l25.8,106.5l9.6,3.8l-0.3,1.5h-28.4l0.3-1.5l10.8-3.8L650,61.8h-44.5
			l-26.6,44.7l11.8,3.8l-0.3,1.5H562L562.3,110.3z M649,57.5L637.3,8.1l-29.2,49.3H649z"/>
		<path class="st0" d="M686.2,110.3l11.6-3.8L717.2,7l-10-4.4l0.3-1.5h42c16.2,0,30.1,8.3,30.1,23.6c0,22.6-21.1,33.2-41.2,33.2
			h-24.6l-9.5,48.6l10.2,3.8l-0.3,1.5h-28.4L686.2,110.3z M738.3,55c20.4,0,34.2-12.5,34.2-31.1c0-12.9-9-19.8-24.3-19.8h-23.9
			L714.4,55H738.3z"/>
		<path class="st0" d="M884.8,1.2l-0.3,1.5L872.7,7l-19.4,99.5l10.2,3.8l-0.3,1.5h-28.4l0.3-1.5l11.6-3.8l9.9-50.8h-59.7l-9.9,50.8
			l10.2,3.8l-0.3,1.5h-28.4l0.3-1.5l11.6-3.8L800,7l-10-4.4l0.3-1.5h28.4l-0.3,1.5L806.5,7l-8.6,44.4h59.7L866.2,7l-10-4.4l0.3-1.5
			H884.8z"/>
		<path class="st0" d="M882.2,67.4c0-39.4,34.5-67.4,65.3-67.4c24.4,0,42.2,19.6,42.2,45.7c0,38.8-35.4,67.7-66.8,67.7
			C899.2,113.3,882.2,94.6,882.2,67.4z M981.7,47.7c0-28.1-17.9-42.3-37.8-42.3c-17.3,0-46.3,12.2-53,46.4c-0.9,4.9-1.3,9.6-1.3,14
			c0,29.1,19.8,42.2,37.5,42.2C947.1,108,981.7,93.7,981.7,47.7z"/>
		<path class="st0" d="M1039.6,57.9h-3.2l20.2,48.6l12.2,3.8l-0.3,1.5h-31.3l0.3-1.5l11.3-3.8l-20.1-48.6H1015l-9.5,48.6l10.2,3.8
			l-0.3,1.5h-28.4l0.3-1.5l11.6-3.8L1018.4,7l-10-4.4l0.3-1.5h42c16.2,0,30.1,8.3,30.1,23.6C1080.8,47.3,1059.7,57.9,1039.6,57.9z
			 M1039.5,55c20.4,0,34.2-12.5,34.2-31.1c0-12.9-9-19.8-24.3-19.8h-23.9l-9.9,50.9H1039.5z"/>
	</g>
</g>
</svg>
