<?xml version="1.0" encoding="utf-8"?>
<!-- Generator: Adobe Illustrator 22.1.0, SVG Export Plug-In . SVG Version: 6.00 Build 0)  -->
<svg version="1.1" id="Layer_1" xmlns="http://www.w3.org/2000/svg" xmlns:xlink="http://www.w3.org/1999/xlink" x="0px" y="0px"
	 viewBox="0 0 32.2 350" style="enable-background:new 0 0 32.2 350;" xml:space="preserve">
<style type="text/css">
	.st0{clip-path:url(#SVGID_2_);}
	.st1{fill:#FF0000;}
</style>
<g>
	<g>
		<path class="st1" d="M1.1,0l1.7,3.1h27.2L31.2,0h0.6v12.2h-0.6l-1.3-3.1H2.7l-1.7,3.1H0.5V0H1.1z"/>
		<path class="st1" d="M1.1,15.4l1.7,3.1h27.2l1.3-3.1h0.6v5.4L11.7,37.2h18.3l1.3-3.1h0.6v8.1h-0.6l-1.3-3.1H0.5v-1.4l21-17.2H2.7
			l-1.7,3.1H0.5v-8.1H1.1z"/>
		<path class="st1" d="M1.1,45.4l1.7,3.1h27.2l1.3-3.1h0.6v14.3c0,9.9-5.3,17.1-15.5,17.1c-8.9,0-15.9-5.6-15.9-17.9V45.4H1.1z
			 M1.7,58.5c0,6.8,6.1,11.6,14.8,11.6c8.6,0,14.2-4.8,14.2-12.4v-1.9c0-1-0.5-1.3-1.9-1.3H4.1c-1.9,0-2.4,0.5-2.4,2.7V58.5z"/>
		<path class="st1" d="M1.1,79.5l1.7,3.1h27.2l1.3-3.1h0.6v21.3c-2.2,0.2-4.1,1-6.4,1.4v-0.8l4.5-3.5v-8.1c0-1.2-0.8-1.2-1.9-1.2H18
			v6l3.5,1.4v1.2h-9V96l3.5-1.4v-6H4.6c-1.2,0-1.9,0.2-1.9,1.2v8.5l4.1,3.5v0.8c-2.9-0.6-4.1-1.2-6.4-1.4V79.5H1.1z"/>
		<path class="st1" d="M4.8,106.7l8.1,3.1v1.2l-2.7-0.2c-0.5,0-0.9-0.1-1.5-0.1c-5.2,0-7,3.3-7,7.2c0,5.2,1.6,7.9,4.9,7.9
			c3.5,0,4.3-2.9,5.9-8.9c1.6-6,5.5-8.8,10.4-8.8c6.4,0,9.3,4.8,9.3,10.1c0,4.8-2.4,8.9-3.3,10l-7.7-2.4v-1.2l2,0.1
			c5,0.3,7.7-2.4,7.7-6.9c0-3.5-1.7-6.2-4.7-6.2c-3.8,0-4.9,4.3-6,8c-1.4,5.1-2.9,10-9.9,10c-6.9,0-10.2-4.8-10.2-11.2
			C0,113.6,1.7,110,4.8,106.7z"/>
		<path class="st1" d="M15.6,133.3c9.7,0,16.6,7.8,16.6,17.8c0,6.7-3.1,9.7-3.6,10h-9.2v-1.2c8.3,0,11.2-3.9,11.2-9.2
			c0-4.1-1.7-10.6-13.6-10.6c-11.7,0.2-15.5,4.7-15.5,11c0,6.3,4,10.5,11.4,12.9v1C5.5,162.8,0,157.9,0,149.7
			C0,141.3,5.8,133.3,15.6,133.3z"/>
		<path class="st1" d="M1.1,195H0.5v-13h0.6l1.2,2.9l12.9-7.9v-2.3H2.7l-1.7,3.1H0.5v-12.2h0.6l1.7,3.1h27.2l1.3-3.1h0.6v14
			c0,5.1-2.6,10.8-8,10.8c-4.1,0-6.9-3.3-8.1-7.6l-13.1,8.1L1.1,195z M17.2,174.8v2.6c0,4.4,2.1,7.3,6.5,7.3c4.9,0,6.1-3.7,6.1-7.3
			V176c0-1-0.5-1.3-1.9-1.3H17.2z"/>
		<path class="st1" d="M1.1,197.4l1.7,3.1h27.2l1.3-3.1h0.6v12.2h-0.6l-1.3-3.1H2.7l-1.7,3.1H0.5v-12.2H1.1z"/>
		<path class="st1" d="M1.1,212.8l1.7,3.1h27.2l1.3-3.1h0.6v13.4c0,6.7-3.3,11.4-7.9,11.4c-4.3,0-6.7-3.9-7.7-7.1
			c-0.7,4.4-3.4,8.7-7.7,8.7c-4.5,0-8.2-3.8-8.2-12.2v-14.1H1.1z M2.6,225.4c0,6.4,2.9,7.8,6.3,7.8c4.5,0,6.3-3.6,6.3-8.5v-2.8H5
			c-1.9,0-2.4,0.5-2.4,3.1V225.4z M17.2,225.1c0,3.7,1.9,6.7,6.9,6.7c4.6,0,5.7-2.7,5.7-6.6v-2c0-1-0.5-1.3-1.9-1.3H17.2V225.1z"/>
		<path class="st1" d="M1.1,239.4l1.7,3.1l23.8,10l5.7-2.4v6.5L2.8,269.3l-1.7,3H0.5v-12.2h0.6l1.2,2.9l8.7-3.7v-11.4l-8.8-3.7
			l-1.1,3.3H0.5v-8.1H1.1z M13.1,258.4l11.5-4.9l-11.5-4.8V258.4z"/>
		<path class="st1" d="M1.1,274.6l1.7,3.1h27.2l1.3-3.1h0.6V288c0,6.7-3.3,11.4-7.9,11.4c-4.3,0-6.7-3.9-7.7-7.1
			c-0.7,4.4-3.4,8.7-7.7,8.7c-4.5,0-8.2-3.8-8.2-12.2v-14.1H1.1z M2.6,287.3c0,6.4,2.9,7.8,6.3,7.8c4.5,0,6.3-3.6,6.3-8.5v-2.8H5
			c-1.9,0-2.4,0.5-2.4,3.1V287.3z M17.2,287c0,3.7,1.9,6.7,6.9,6.7c4.6,0,5.7-2.7,5.7-6.6v-2c0-1-0.5-1.3-1.9-1.3H17.2V287z"/>
		<path class="st1" d="M1.1,303l1.7,3.1h27.2l1.3-3.1h0.6v12.2h-0.6l-1.3-3.1H4.6c-1.2,0-1.9,0.2-1.9,1.2v7.6l4.1,3.5v0.8
			c-2.9-0.6-4.1-1.2-6.4-1.4V303H1.1z"/>
		<path class="st1" d="M1.1,326.9l1.7,3.1h27.2l1.3-3.1h0.6v21.3c-2.2,0.2-4.1,1-6.4,1.4v-0.8l4.5-3.5v-8.1c0-1.2-0.8-1.2-1.9-1.2
			H18v6l3.5,1.4v1.2h-9v-1.2l3.5-1.4v-6H4.6c-1.2,0-1.9,0.2-1.9,1.2v8.5l4.1,3.5v0.8c-2.9-0.6-4.1-1.2-6.4-1.4v-21.7H1.1z"/>
	</g>
</g>
</svg>
