<?xml version="1.0" encoding="utf-8"?>
<!-- Generator: Adobe Illustrator 22.1.0, SVG Export Plug-In . SVG Version: 6.00 Build 0)  -->
<svg version="1.1" id="Layer_1" xmlns="http://www.w3.org/2000/svg" xmlns:xlink="http://www.w3.org/1999/xlink" x="0px" y="0px"
	 viewBox="0 0 1195.4 156.3" style="enable-background:new 0 0 1195.4 156.3;" xml:space="preserve">
<style type="text/css">
	.st0{enable-background:new    ;}
	.st1{fill:#FF0000;}
</style>
<g>
	<g class="st0">
		<path class="st1" d="M7,69.8c0-29.2,18.4-55.3,56.1-55.3c37.5,0,56.1,26.1,56.1,55.3c0,29.2-18.6,55.3-56.1,55.3
			C25.4,125,7,98.9,7,69.8z M87.4,69.8c0-12.4-6.6-30.3-24.3-30.3c-17.9,0-24.3,17.9-24.3,30.3s6.4,30.3,24.3,30.3
			C80.8,100.1,87.4,82.2,87.4,69.8z"/>
		<path class="st1" d="M231.1,16.7v106.1h-29.3V84.7h-36.1v38.1h-29.3V16.7h29.3v40.2h36.1V16.7H231.1z"/>
		<path class="st1" d="M260.8,122.8h-13.4V94.5h29.9v28.3l-13.7,28.3h-13.5L260.8,122.8z"/>
		<path class="st1" d="M385.2,46.1v76.8h-29.3V46.1h-31.5V16.7h92.3l0.1,29.3H385.2z"/>
		<path class="st1" d="M525.5,16.7v106.1h-29.3V84.7H460v38.1h-29.3V16.7H460v40.2h36.1V16.7H525.5z"/>
		<path class="st1" d="M628.3,93.5v29.3h-82.5V16.7H626v29.3h-51.1v9.4H622v29.3h-47.2v8.8H628.3z"/>
		<path class="st1" d="M686.1,16.7h29.3v106.1h-29.3V16.7z"/>
		<path class="st1" d="M736.2,16.7h43c22.9,0,38.9,12.4,38.9,33.9c0,14.9-8,28.5-19.1,33.2c-2.2,0.7-2.4,0.8-2.8,1.1l29.9,37.8
			h-35.2l-25.4-34.8v34.8h-29.3V16.7z M772.4,63.2c7.3,0,14.4-2,14.4-10.2c0-8.8-8.4-11.3-14.1-11.3h-7.1v21.5H772.4z"/>
		<path class="st1" d="M837.1,69.8c0-29.2,18.4-55.3,56.1-55.3c37.5,0,56.1,26.1,56.1,55.3c0,29.2-18.6,55.3-56.1,55.3
			C855.5,125,837.1,98.9,837.1,69.8z M917.5,69.8c0-12.4-6.6-30.3-24.3-30.3c-17.9,0-24.3,17.9-24.3,30.3s6.4,30.3,24.3,30.3
			C910.9,100.1,917.5,82.2,917.5,69.8z"/>
		<path class="st1" d="M966.5,16.7h27.8l37.7,56.9V16.7h29.3v106.1h-28.1l-37.4-55.7v55.7h-29.3V16.7z"/>
		<path class="st1" d="M1120.3,85.7L1078,16.7h32.1l24.7,43.1l24.6-43.1h32.2l-42.2,68.9v37.1h-29.2V85.7z"/>
	</g>
</g>
</svg>
