<?xml version="1.0" encoding="utf-8"?>
<!-- Generator: Adobe Illustrator 22.1.0, SVG Export Plug-In . SVG Version: 6.00 Build 0)  -->
<svg version="1.1" id="Layer_1" xmlns="http://www.w3.org/2000/svg" xmlns:xlink="http://www.w3.org/1999/xlink" x="0px" y="0px"
	 viewBox="0 0 505.3 163.1" style="enable-background:new 0 0 505.3 163.1;" xml:space="preserve">
<style type="text/css">
	.st0{fill:#FFFFFF;stroke:#231F20;stroke-miterlimit:10;}
	.st1{clip-path:url(#SVGID_2_);}
	.st2{fill:none;stroke:#231F20;stroke-miterlimit:10;}
	.st3{fill:#FF0000;}
</style>
<g>
	<path class="st3" d="M116.2,116.6v43.3H0V3.3h42.8v113.3H116.2z"/>
	<path class="st3" d="M126.7,81.6c0-43.1,27.2-81.6,82.8-81.6c55.4,0,82.8,38.5,82.8,81.6s-27.4,81.6-82.8,81.6
		C153.9,163.1,126.7,124.6,126.7,81.6z M245.3,81.6c0-18.3-9.7-44.7-35.8-44.7c-26.4,0-35.8,26.4-35.8,44.7
		c0,18.3,9.5,44.7,35.8,44.7C235.7,126.3,245.3,99.9,245.3,81.6z"/>
	<path class="st3" d="M433.8,116.6v43.3H317.7V3.3h42.8v113.3H433.8z"/>
	<path class="st3" d="M461.2,118h44.1v41.8h-44.1V118z M461.6,3.3h43.3v100.5h-43.3V3.3z"/>
</g>
</svg>
