<?xml version="1.0" encoding="utf-8"?>
<!-- Generator: Adobe Illustrator 22.1.0, SVG Export Plug-In . SVG Version: 6.00 Build 0)  -->
<svg version="1.1" id="Layer_1" xmlns="http://www.w3.org/2000/svg" xmlns:xlink="http://www.w3.org/1999/xlink" x="0px" y="0px"
	 viewBox="0 0 206.9 296.8" style="enable-background:new 0 0 206.9 296.8;" xml:space="preserve">
<style type="text/css">
	.st0{fill:#FFFFFF;stroke:#231F20;stroke-miterlimit:10;}
	.st1{clip-path:url(#SVGID_2_);}
	.st2{fill:none;stroke:#231F20;stroke-miterlimit:10;}
	.st3{fill:#FF0000;}
</style>
<g>
	<path class="st3" d="M24.5,51.4l5-1.8L50,0h2l21.6,49.6l4.8,1.8v0.7H65.2v-0.7l4.7-1.8L61,28.8H40.3l-8.3,20.8l5.8,1.8v0.7H24.5
		V51.4z M60.1,26.8l-9.8-23l-9.2,23H60.1z"/>
	<path class="st3" d="M99.9,51.4l5.1-1.8V3.3l-5.1-2V0.5h22.7c14.9,0,24.1,8.7,24.1,26.2c0,13.8-9.1,25.3-24,25.3H99.9V51.4z
		 M120.7,50.7c13.9,0,22.4-12.3,22.4-23.6c0-17.1-8.5-25.2-22.4-25.2H108v48.8H120.7z"/>
	<path class="st3" d="M151.3,51.4l4.4-1.1V20.9h-4.4v-0.7l6.4-2h0.7v32.1l4.4,1.1v0.7h-11.5V51.4z M153.8,5.8c0-1.6,1.2-2.8,2.8-2.8
		c1.6,0,2.8,1.2,2.8,2.8c0,1.6-1.2,2.8-2.8,2.8C155,8.6,153.8,7.4,153.8,5.8z"/>
	<path class="st3" d="M165.9,31.7h17.1v2.6h-17.1V31.7z"/>
	<path class="st3" d="M0,132.7l4.4-1.1v-29.4H0v-0.7l6.4-2h0.7v9.8h0.1c1.2-4.6,4.2-10.8,9-10.8c3.6,0,5.3,2.6,6.3,4.3l-3.9,10.2h-1
		c0.9-2.6,1.6-5.1,1.6-7.3c0-3.1-1.1-5.4-3.6-5.4c-4.5,0-7.8,9.5-8.4,15.9v15.4l4.4,1.1v0.7H0V132.7z"/>
	<path class="st3" d="M26,116.5c0-10.8,6.8-18,15-18c7.4,0,12.3,5.9,12.3,14.8v1h-25v0.4c0,9.6,6.2,17.4,13.8,17.4
		c5.6,0,9.6-3.5,12.5-10.6h1c-2.2,7-6.8,12.7-14.6,12.7C30.9,134.1,26,123.8,26,116.5z M50.4,112.2c0-7-3.9-11.7-9.6-11.7
		c-6.8,0-11.2,5.2-12.1,11.7H50.4z"/>
	<path class="st3" d="M59.9,116.6c0-9.4,5.9-18.1,15.4-18.1c6.6,0,10.2,3.5,11.5,5.3l-4,11.6h-1c0.9-2.4,1.3-4.7,1.3-6.6
		c0-5.1-2.9-8.2-8.3-8.2c-6.4,0-12.4,5.1-12.4,14.1c0,10.9,6.3,17.4,13.1,17.4c6.4,0,10-3.4,13-10.6h1c-2.1,6.8-6.5,12.7-14.8,12.7
		C65.4,134.1,59.9,125.7,59.9,116.6z"/>
	<path class="st3" d="M96.8,124.2v-23h-5.2v-0.7l5.2-1L98.5,88h1v11.5h8.9v1.7h-8.9v22.7c0,6.2,1.4,8.5,4.6,8.5
		c1.6,0,4.1-0.6,5.8-5.5h1c-1.4,5-4.4,7.3-8.1,7.3C98.9,134.1,96.8,131.4,96.8,124.2z"/>
	<path class="st3" d="M129.5,132.7l4.4-1.1v-29.4h-4.4v-0.7l6.4-2h0.7v9.8h0.1c1.2-4.6,4.2-10.8,9-10.8c3.6,0,5.3,2.6,6.3,4.3
		l-3.9,10.2h-1c0.9-2.6,1.6-5.1,1.6-7.3c0-3.1-1.1-5.4-3.6-5.4c-4.5,0-7.8,9.5-8.4,15.9v15.4l4.4,1.1v0.7h-11.5V132.7z"/>
	<path class="st3" d="M155.4,116.5c0-10.8,6.8-18,15-18c7.4,0,12.3,5.9,12.3,14.8v1h-25v0.4c0,9.6,6.2,17.4,13.8,17.4
		c5.6,0,9.6-3.5,12.5-10.6h1c-2.2,7-6.8,12.7-14.6,12.7C160.4,134.1,155.4,123.8,155.4,116.5z M179.8,112.2c0-7-3.9-11.7-9.6-11.7
		c-6.8,0-11.2,5.2-12.1,11.7H179.8z"/>
	<path class="st3" d="M189.7,113.1h17.1v2.6h-17.1V113.1z"/>
	<path class="st3" d="M1.6,227.6l4.4-1.1v-43H1.6v-0.9l6.4-2c2.4-0.5,4.5-0.8,6.5-0.8c13.1,0,16.5,11.1,16.5,18.8
		c0,8.8-3.8,16.9-13,16.9c-4.3,0-7.3-2.7-9.4-5.4v16.4l4.4,1.1v0.7H1.6V227.6z M28.3,198.1c0-6.8-4.4-16.7-14.9-16.7
		c-1.4,0-3,0.2-4.7,0.6v26.7c2,2.3,5.2,4.7,8.9,4.7C23.5,213.4,28.3,209.2,28.3,198.1z"/>
	<path class="st3" d="M35,214.1l4.4-1.1v-29.4H35v-0.7l6.4-2h0.7v9.8h0.1c1.2-4.6,4.2-10.8,9-10.8c3.6,0,5.3,2.6,6.3,4.3l-3.9,10.2
		h-1c0.9-2.6,1.6-5.1,1.6-7.3c0-3.1-1.1-5.4-3.6-5.4c-4.5,0-7.8,9.5-8.4,15.9V213l4.4,1.1v0.7H35V214.1z"/>
	<path class="st3" d="M60.9,197.9c0-10.8,6.8-18,15-18c7.4,0,12.3,5.9,12.3,14.8v1h-25v0.4c0,9.6,6.2,17.4,13.8,17.4
		c5.6,0,9.6-3.5,12.5-10.6h1c-2.2,7-6.8,12.7-14.6,12.7C65.9,215.5,60.9,205.2,60.9,197.9z M85.3,193.6c0-7-3.9-11.7-9.6-11.7
		c-6.8,0-11.2,5.2-12.1,11.7H85.3z"/>
	<path class="st3" d="M93.3,210l3.3-9.1h0.9c-0.6,1.8-0.9,3.5-0.9,5.2c0,4.1,2.2,7.5,8.1,7.5c6,0,10-3.5,10-7.6
		c0-4.3-4.5-5.8-11.7-8.1c-5.2-1.6-8.3-4.4-8.3-9.4c0-5.9,4.5-8.7,10-8.7c5.4,0,8.7,2.8,10.3,4.8l-2.5,7.4h-1
		c0.4-1.3,0.6-2.4,0.6-3.5c0-4.3-3.3-6.8-7.7-6.8c-4.2,0-8.2,2.3-8.2,6.4c0,3.2,2.3,4.8,8.3,6.6c5.8,1.8,11.5,2.6,11.5,10
		c0,7-5,10.6-11.3,10.6C98.4,215.5,94.9,212,93.3,210z"/>
	<path class="st3" d="M121.4,197.9c0-10.8,6.8-18,15-18c7.4,0,12.3,5.9,12.3,14.8v1h-25v0.4c0,9.6,6.2,17.4,13.8,17.4
		c5.6,0,9.6-3.5,12.5-10.6h1c-2.2,7-6.8,12.7-14.6,12.7C126.3,215.5,121.4,205.2,121.4,197.9z M145.8,193.6c0-7-3.9-11.7-9.6-11.7
		c-6.8,0-11.2,5.2-12.1,11.7H145.8z"/>
	<path class="st3" d="M153.1,214.1l4.4-1.1v-29.4h-4.4v-0.7l6.4-2h0.7v8.1c0.9-2.8,4.3-9.2,12-9.2c4.9,0,8.3,2.8,8.3,10.2v23
		l4.4,1.1v0.7h-11.5v-0.7l4.3-1.1V192c0-7.5-2.4-10.1-7.3-10.1c-4.7,0-9.1,5.4-10.2,10.2V213l4.4,1.1v0.7h-11.5V214.1z"/>
	<path class="st3" d="M188,194.4h17.1v2.6H188V194.4z"/>
	<path class="st3" d="M17.7,286.9v-23h-5.2v-0.7l5.2-1l1.6-11.5h1v11.5h8.9v1.7h-8.9v22.7c0,6.2,1.4,8.5,4.6,8.5
		c1.6,0,4.1-0.6,5.8-5.5h1c-1.4,5-4.4,7.3-8.1,7.3C19.8,296.8,17.7,294.1,17.7,286.9z"/>
	<path class="st3" d="M35.2,287.9c0-10.5,14-12.4,20.1-13.5v-2c0-7.3-3.9-9.7-7.9-9.7c-4.9,0-8.7,3.7-8.7,8.7c0,1.2,0.2,2.6,0.7,3.9
		h-1l-2.7-8.7c1.6-2.2,5-5.6,12.3-5.6c7,0,10.2,3.1,10.2,10v22.2h4.3v0.7l-6.4,2h-0.7v-8.4c-0.7,2.3-4.1,9.1-11.4,9.1
		C38.8,296.8,35.2,293.3,35.2,287.9z M55.3,286.4v-10.9c-3.8,0.8-17.1,2.8-17.1,12.1c0,3.7,2.1,7.3,6.4,7.3
		C49.8,294.9,53.6,290.1,55.3,286.4z"/>
	<path class="st3" d="M70.1,286.9v-23H65v-0.7l5.2-1l1.6-11.5h1v11.5h8.9v1.7h-8.9v22.7c0,6.2,1.4,8.5,4.6,8.5
		c1.6,0,4.1-0.6,5.8-5.5h1c-1.4,5-4.4,7.3-8.1,7.3C72.2,296.8,70.1,294.1,70.1,286.9z"/>
	<path class="st3" d="M86.5,295.4l4.4-1.1v-29.4h-4.4v-0.7l6.4-2h0.7v32.1l4.4,1.1v0.7H86.5V295.4z M89,249.8c0-1.6,1.2-2.8,2.8-2.8
		c1.6,0,2.8,1.2,2.8,2.8c0,1.6-1.2,2.8-2.8,2.8C90.2,252.6,89,251.4,89,249.8z"/>
	<path class="st3" d="M101.1,279.1c0-7.9,4.7-18,15.7-18c10.4,0,14.8,10,14.8,17.5c0,7.5-4.6,18.2-15.1,18.2
		C106.2,296.8,101.1,286.8,101.1,279.1z M128.8,279.6c0-8.4-4.8-16.3-12.7-16.3c-7.7,0-12.5,6.4-12.5,14.7c0,8.3,5.5,16.7,13.8,16.7
		C123.9,294.7,128.8,288,128.8,279.6z"/>
	<path class="st3" d="M135.4,295.4l4.4-1.1v-29.4h-4.4v-0.7l6.4-2h0.7v8.1c0.9-2.8,4.3-9.2,12-9.2c4.9,0,8.3,2.8,8.3,10.2v23
		l4.4,1.1v0.7h-11.5v-0.7l4.3-1.1v-20.9c0-7.5-2.4-10.1-7.3-10.1c-4.7,0-9.1,5.4-10.2,10.2v20.8l4.4,1.1v0.7h-11.5V295.4z"/>
	<path class="st3" d="M177.4,280.4c0-5.2,1.4-7.3,5.3-12.7c3-4.2,6-8.5,6-14.5c0-7.3-4.5-10.2-9.1-10.2c-5.4,0-9.1,3.9-9.1,11
		c0,2.4,0.4,6.9,0.9,9.4h-1l-3.1-13.7c1.6-4.6,6.3-8.8,12.9-8.8c4.8,0,12.1,2.2,12.1,12.5c0,4.3-1.2,7.7-4.3,11.9
		c-5.3,7.4-9.6,8.3-9.6,20.7h-0.7C177.6,283.7,177.4,282,177.4,280.4z M175.2,293.7c0-1.8,1.3-3.3,3.2-3.3s3.2,1.4,3.2,3.3
		c0,1.8-1.3,3.1-3.2,3.1S175.2,295.5,175.2,293.7z"/>
</g>
</svg>
