<?xml version="1.0" encoding="utf-8"?>
<!-- Generator: Adobe Illustrator 22.1.0, SVG Export Plug-In . SVG Version: 6.00 Build 0)  -->
<svg version="1.1" id="Layer_1" xmlns="http://www.w3.org/2000/svg" xmlns:xlink="http://www.w3.org/1999/xlink" x="0px" y="0px"
	 viewBox="0 0 703.2 225.1" style="enable-background:new 0 0 703.2 225.1;" xml:space="preserve">
<style type="text/css">
	.st0{fill:#FF0000;}
</style>
<g>
	<path class="st0" d="M0,69.4c0-15.8,21.1-18.7,30.3-20.3V46c0-10.9-5.9-14.6-11.9-14.6c-7.4,0-13.1,5.6-13.1,13.2
		c0,1.8,0.3,3.9,1,5.9H4.8L0.7,37.4c2.4-3.3,7.6-8.4,18.5-8.4c10.5,0,15.3,4.7,15.3,15.1v33.4H41v1l-9.7,3.1h-1V69
		c-1,3.5-6.2,13.8-17.1,13.8C5.4,82.8,0,77.4,0,69.4z M30.3,67V50.6c-5.7,1.2-25.7,4.2-25.7,18.3c0,5.6,3.2,10.9,9.7,10.9
		C21.9,79.8,27.8,72.6,30.3,67z"/>
	<path class="st0" d="M45.4,80.6L52,79V34.7h-6.6v-1l9.7-3.1h1v12.2c1.4-4.2,6.5-13.8,18.1-13.8c7.4,0,12.4,4.2,12.4,15.3V79
		l6.6,1.6v1H75.9v-1l6.5-1.6V47.4c0-11.2-3.7-15.2-11-15.2c-7,0-13.8,8.2-15.3,15.4V79l6.6,1.6v1H45.4V80.6z"/>
	<path class="st0" d="M123.3,69.4c0-15.8,21.1-18.7,30.3-20.3V46c0-10.9-5.9-14.6-11.9-14.6c-7.4,0-13.1,5.6-13.1,13.2
		c0,1.8,0.3,3.9,1,5.9h-1.5L124,37.4c2.4-3.3,7.6-8.4,18.5-8.4c10.5,0,15.3,4.7,15.3,15.1v33.4h6.5v1l-9.7,3.1h-1V69
		c-1,3.5-6.2,13.8-17.1,13.8C128.7,82.8,123.3,77.4,123.3,69.4z M153.6,67V50.6c-5.7,1.2-25.7,4.2-25.7,18.3
		c0,5.6,3.2,10.9,9.7,10.9C145.2,79.8,151,72.6,153.6,67z"/>
	<path class="st0" d="M168.7,80.6l6.6-1.6V34.7h-6.6v-1l9.7-3.1h1v14.7h0.1c1.7-6.9,6.3-16.2,13.6-16.2c5.4,0,8,4,9.5,6.4l-5.9,15.3
		h-1.5c1.4-3.9,2.3-7.7,2.3-10.9c0-4.7-1.6-8.1-5.4-8.1c-6.7,0-11.7,14.3-12.7,24V79l6.6,1.6v1h-17.3V80.6z"/>
	<path class="st0" d="M215.2,67.9V33.2h-7.8v-1l7.9-1.5l2.4-17.3h1.5v17.3h13.5v2.6h-13.5v34.2c0,9.3,2,12.8,6.9,12.8
		c2.3,0,6.1-0.9,8.8-8.3h1.5c-2.1,7.5-6.6,10.9-12.1,10.9C218.4,82.8,215.2,78.7,215.2,67.9z"/>
	<path class="st0" d="M239.9,80.6l6.6-1.6V34.7h-6.6v-1l9.7-3.1h1V79l6.6,1.6v1h-17.3V80.6z M243.7,11.9c0-2.4,1.7-4.3,4.2-4.3
		c2.4,0,4.2,1.8,4.2,4.3c0,2.4-1.7,4.3-4.2,4.3C245.4,16.2,243.7,14.4,243.7,11.9z"/>
	<path class="st0" d="M261.5,74.5l4.9-13.7h1.4c-0.9,2.7-1.3,5.3-1.3,7.8c0,6.2,3.4,11.3,12.2,11.3c9.1,0,15.1-5.2,15.1-11.4
		c0-6.5-6.8-8.8-17.7-12.1c-7.8-2.4-12.4-6.6-12.4-14.1c0-8.9,6.8-13.2,15-13.2c8.1,0,13.1,4.3,15.5,7.2l-3.8,11.1H289
		c0.6-1.9,0.9-3.7,0.9-5.2c0-6.4-5-10.2-11.5-10.2c-6.3,0-12.3,3.5-12.3,9.7c0,4.8,3.5,7.2,12.6,10c8.8,2.7,17.2,4,17.2,15.1
		c0,10.6-7.6,15.9-17,15.9S264,77.4,261.5,74.5z"/>
	<path class="st0" d="M309.1,67.9V33.2h-7.8v-1l7.9-1.5l2.4-17.3h1.5v17.3h13.5v2.6h-13.5v34.2c0,9.3,2,12.8,6.9,12.8
		c2.3,0,6.1-0.9,8.8-8.3h1.5c-2.1,7.5-6.6,10.9-12.1,10.9C312.2,82.8,309.1,78.7,309.1,67.9z"/>
	<path class="st0" d="M358.2,101l6.6-1.6V34.7h-6.6v-1.3l9.7-3.1c3.6-0.8,6.8-1.2,9.8-1.2c19.7,0,24.9,16.7,24.9,28.3
		c0,13.3-5.7,25.4-19.6,25.4c-6.4,0-11-4.1-14.1-8.1v24.7l6.6,1.6v1h-17.3V101z M398.4,56.6c0-10.2-6.6-25.2-22.4-25.2
		c-2.1,0-4.5,0.3-7,0.9v40.2c3,3.5,7.9,7,13.4,7C391.1,79.6,398.4,73.4,398.4,56.6z"/>
	<path class="st0" d="M408.4,80.6L415,79V34.7h-6.6v-1l9.7-3.1h1v14.7h0.1c1.7-6.9,6.3-16.2,13.6-16.2c5.4,0,8,4,9.5,6.4l-5.9,15.3
		h-1.5c1.4-3.9,2.3-7.7,2.3-10.9c0-4.7-1.6-8.1-5.4-8.1c-6.7,0-11.7,14.3-12.7,24V79l6.6,1.6v1h-17.3V80.6z"/>
	<path class="st0" d="M447.4,56.2c0-16.2,10.2-27.1,22.7-27.1c11.1,0,18.5,8.9,18.5,22.2v1.5h-37.7v0.6c0,14.5,9.3,26.1,20.8,26.1
		c8.5,0,14.4-5.3,18.8-15.9h1.5c-3.3,10.6-10.3,19.1-22,19.1C454.9,82.8,447.4,67.2,447.4,56.2z M484.2,49.8
		c0-10.5-5.8-17.5-14.5-17.5c-10.2,0-16.8,7.8-18.3,17.5H484.2z"/>
	<path class="st0" d="M504.4,67.9V33.2h-7.8v-1l7.9-1.5l2.4-17.3h1.5v17.3h13.5v2.6h-13.5v34.2c0,9.3,2,12.8,6.9,12.8
		c2.3,0,6.1-0.9,8.8-8.3h1.5c-2.1,7.5-6.6,10.9-12.1,10.9C507.5,82.8,504.4,78.7,504.4,67.9z"/>
	<path class="st0" d="M529.3,56.2c0-16.2,10.2-27.1,22.7-27.1c11.1,0,18.5,8.9,18.5,22.2v1.5h-37.7v0.6c0,14.5,9.3,26.1,20.8,26.1
		c8.5,0,14.4-5.3,18.8-15.9h1.5c-3.3,10.6-10.3,19.1-22,19.1C536.7,82.8,529.3,67.2,529.3,56.2z M566,49.8
		c0-10.5-5.8-17.5-14.5-17.5c-10.2,0-16.8,7.8-18.3,17.5H566z"/>
	<path class="st0" d="M577,80.6l6.6-1.6V34.7H577v-1l9.7-3.1h1v12.2c1.4-4.2,6.5-13.8,18.1-13.8c7.4,0,12.4,4.2,12.4,15.3V79
		l6.6,1.6v1h-17.3v-1l6.5-1.6V47.4c0-11.2-3.7-15.2-11-15.2c-7,0-13.8,8.2-15.3,15.4V79l6.6,1.6v1H577V80.6z"/>
	<path class="st0" d="M666.7,0v81.6h-4.1C636.1,81.6,629,66.1,629,54c0-10.9,5.7-24.9,19.6-24.9c6.4,0,11,4.3,14.1,8.4V4.1H656v-1
		l9.7-3.1H666.7z M662.6,80.1V40.4c-2.8-3.8-7.4-8.2-13.4-8.2c-8.9,0-16.1,8.5-16.1,20.6C633.2,66,641.7,79,662.6,80.1z"/>
	<path class="st0" d="M675.9,51h25.8v3.9h-25.8V51z"/>
	<path class="st0" d="M0.3,203.1l6.6-1.6v-44.3H0.3v-1l9.7-3.1h1v48.4l6.6,1.6v1H0.3V203.1z M4.1,134.4c0-2.4,1.7-4.3,4.2-4.3
		c2.4,0,4.2,1.8,4.2,4.3c0,2.4-1.7,4.3-4.2,4.3C5.8,138.7,4.1,136.8,4.1,134.4z"/>
	<path class="st0" d="M23.1,203.1l6.6-1.6v-44.3h-6.6v-1l9.7-3.1h1v12.2c1.4-4.2,6.5-13.8,18.1-13.8c7.4,0,12.4,4.2,12.4,15.3v34.6
		l6.6,1.6v1H53.6v-1l6.5-1.6v-31.5c0-11.2-3.7-15.2-11-15.2c-7,0-13.8,8.2-15.3,15.4v31.3l6.6,1.6v1H23.1V203.1z"/>
	<path class="st0" d="M77.7,213.8h1.5c6.3,7.9,10.9,9.3,15.4,9.3c9,0,13.7-6,13.7-13.8v-5.2c-26.5,6-33.7-13.1-33.7-27.1
		c0-13,6.1-25.4,19.1-25.4c7.3,0,11.3,4.1,14.6,8.3v-6.7h1l9.7,3.1v1h-6.5v50.3c0,13.9-8.5,17.7-17,17.7
		C88,225.1,83.4,222.4,77.7,213.8z M108.3,162.8c-3-4-7.3-8.1-13.6-8.1c-8.7,0-15.9,7.8-15.9,21.4c0,15,8.8,31,29.5,26.4V162.8z"/>
	<path class="st0" d="M154.5,190.3v-34.7h-7.8v-1l7.9-1.5l2.4-17.3h1.5v17.3H172v2.6h-13.5v34.2c0,9.3,2,12.8,6.9,12.8
		c2.3,0,6.1-0.9,8.8-8.3h1.5c-2.1,7.5-6.6,10.9-12.1,10.9C157.7,205.2,154.5,201.1,154.5,190.3z"/>
	<path class="st0" d="M179.4,178.6c0-11.9,7-27,23.6-27c15.6,0,22.3,15.1,22.3,26.3c0,11.3-6.9,27.3-22.8,27.3
		C187,205.2,179.4,190.1,179.4,178.6z M221.1,179.3c0-12.7-7.2-24.6-19.2-24.6c-11.5,0-18.9,9.6-18.9,22.1
		c0,12.4,8.3,25.2,20.8,25.2C213.8,202,221.1,191.9,221.1,179.3z"/>
	<path class="st0" d="M295.6,180.7c0,10.9-5.7,24.5-19.6,24.5c-6.6,0-11.4-4.4-14.5-8.6l-2.2,7.4h-1.5v-77.5h-6.5v-1l9.7-3.1h1v29.1
		C288.5,151.5,295.6,168.6,295.6,180.7z M291.4,181.8c0-13.2-8.6-28.8-29.5-28.8v41.8c2.9,3.5,7.8,7.1,13.4,7.1
		C284.2,202,291.4,194,291.4,181.8z"/>
	<path class="st0" d="M303.6,178.7c0-16.2,10.2-27.1,22.7-27.1c11.1,0,18.5,8.9,18.5,22.2v1.5H307v0.6c0,14.5,9.3,26.1,20.8,26.1
		c8.5,0,14.4-5.3,18.8-15.9h1.5c-3.3,10.6-10.3,19.1-22,19.1C311,205.2,303.6,189.7,303.6,178.7z M340.3,172.2
		c0-10.5-5.8-17.5-14.5-17.5c-10.2,0-16.8,7.8-18.3,17.5H340.3z"/>
	<path class="st0" d="M377.4,191.8c0-15.8,21.1-18.7,30.3-20.3v-3.1c0-10.9-5.9-14.6-11.9-14.6c-7.4,0-13.1,5.6-13.1,13.2
		c0,1.8,0.3,3.9,1,5.9h-1.5l-4.1-13.1c2.4-3.3,7.5-8.4,18.5-8.4c10.5,0,15.3,4.7,15.3,15.1V200h6.5v1l-9.7,3.1h-1v-12.7
		c-1,3.5-6.2,13.8-17.1,13.8C382.9,205.2,377.4,199.9,377.4,191.8z M407.7,189.5v-16.4c-5.7,1.2-25.7,4.2-25.7,18.3
		c0,5.6,3.2,10.9,9.7,10.9C399.4,202.2,405.2,195.1,407.7,189.5z"/>
	<path class="st0" d="M455.8,156.4l-7.6-2.3v-1h19.9v1l-7.9,2.3l12.2,42l13.2-45.4h3.6l12.9,45.4l12.2-42l-8.3-2.3v-1H526v1
		l-8.8,2.3l-14.2,47.7H500l-13.3-46l-13.3,46h-3.1L455.8,156.4z"/>
	<path class="st0" d="M529.4,203.1l6.6-1.6v-44.3h-6.6v-1l9.7-3.1h1v14.7h0.1c1.7-6.9,6.3-16.2,13.6-16.2c5.4,0,8,4,9.5,6.4
		l-5.9,15.3h-1.5c1.4-3.9,2.3-7.7,2.3-10.9c0-4.7-1.6-8.1-5.4-8.1c-6.7,0-11.7,14.3-12.7,24v23.2l6.6,1.6v1h-17.3V203.1z"/>
	<path class="st0" d="M568.3,203.1l6.6-1.6v-44.3h-6.6v-1l9.7-3.1h1v48.4l6.6,1.6v1h-17.3V203.1z M572,134.4c0-2.4,1.7-4.3,4.2-4.3
		s4.2,1.8,4.2,4.3c0,2.4-1.7,4.3-4.2,4.3S572,136.8,572,134.4z"/>
	<path class="st0" d="M596.6,190.3v-34.7h-7.8v-1l7.9-1.5l2.4-17.3h1.5v17.3h13.5v2.6h-13.5v34.2c0,9.3,2,12.8,6.9,12.8
		c2.3,0,6.1-0.9,8.8-8.3h1.5c-2.1,7.5-6.6,10.9-12.1,10.9C599.8,205.2,596.6,201.1,596.6,190.3z"/>
	<path class="st0" d="M621.5,178.7c0-16.2,10.2-27.1,22.7-27.1c11.1,0,18.5,8.9,18.5,22.2v1.5H625v0.6c0,14.5,9.3,26.1,20.8,26.1
		c8.5,0,14.4-5.3,18.8-15.9h1.5c-3.3,10.6-10.3,19.1-22,19.1C629,205.2,621.5,189.7,621.5,178.7z M658.3,172.2
		c0-10.5-5.8-17.5-14.5-17.5c-10.2,0-16.8,7.8-18.3,17.5H658.3z"/>
	<path class="st0" d="M669.3,203.1l6.6-1.6v-44.3h-6.6v-1l9.7-3.1h1v14.7h0.1c1.7-6.9,6.3-16.2,13.6-16.2c5.4,0,8,4,9.5,6.4
		l-5.9,15.3h-1.5c1.4-3.9,2.3-7.7,2.3-10.9c0-4.7-1.6-8.1-5.4-8.1c-6.7,0-11.7,14.3-12.7,24v23.2l6.6,1.6v1h-17.3V203.1z"/>
</g>
</svg>
