<?xml version="1.0" encoding="utf-8"?>
<!-- Generator: Adobe Illustrator 22.1.0, SVG Export Plug-In . SVG Version: 6.00 Build 0)  -->
<svg version="1.1" id="Layer_1" xmlns="http://www.w3.org/2000/svg" xmlns:xlink="http://www.w3.org/1999/xlink" x="0px" y="0px"
	 viewBox="0 0 163.8 526.6" style="enable-background:new 0 0 163.8 526.6;" xml:space="preserve">
<style type="text/css">
	.st0{fill:#FF0000;}
</style>
<g>
	<path class="st0" d="M62.6,154.5l15.5-5.4V98.7L27.8,7L14.2,2.1V0h40.2v2.1L39.3,7l46.1,83L129,7l-19.6-4.9V0h40.2v2.1L135.1,7
		L87.3,97.4v51.7l15.4,5.4v2.1H62.6V154.5z"/>
	<path class="st0" d="M0,524.5l15.2-5.4l62-150.8h6.2l65.7,150.8l14.6,5.4v2.1h-40.2v-2.1l14.2-5.4l-27-63.2h-63l-25.3,63.2
		l17.7,5.4v2.1H0V524.5z M108.1,449.7l-29.9-69.8l-28,69.8H108.1z"/>
</g>
</svg>
